HIERARCHY
ROOT Hips
{
	OFFSET 0.000000 0.000000 0.000000
	CHANNELS 6 Xposition Yposition Zposition Zrotation Yrotation Xrotation 
	JOINT LHipJoint
	{
		OFFSET 0.000000 0.000000 0.000000
		CHANNELS 3 Zrotation Yrotation Xrotation
		JOINT LeftUpLeg
		{
			OFFSET 1.363060 -1.794630 0.839290
			CHANNELS 3 Zrotation Yrotation Xrotation
			JOINT LeftLeg
			{
				OFFSET 2.448110 -6.726130 0.000000
				CHANNELS 3 Zrotation Yrotation Xrotation
				JOINT LeftFoot
				{
					OFFSET 2.562200 -7.039590 0.000000
					CHANNELS 3 Zrotation Yrotation Xrotation
					JOINT LeftToeBase
					{
						OFFSET 0.157640 -0.433110 2.322550
						CHANNELS 3 Zrotation Yrotation Xrotation
						End Site
						{
							OFFSET 0.000000 0.000000 0.000000
						}
					}
				}
			}
		}
	}
	JOINT RHipJoint
	{
		OFFSET 0.000000 0.000000 0.000000
		CHANNELS 3 Zrotation Yrotation Xrotation
		JOINT RightUpLeg
		{
			OFFSET -1.305520 -1.794630 0.839290
			CHANNELS 3 Zrotation Yrotation Xrotation
			JOINT RightLeg
			{
				OFFSET -2.542530 -6.985550 0.000000
				CHANNELS 3 Zrotation Yrotation Xrotation
				JOINT RightFoot
				{
					OFFSET -2.568260 -7.056230 0.000000
					CHANNELS 3 Zrotation Yrotation Xrotation
					JOINT RightToeBase
					{
						OFFSET -0.164730 -0.452590 2.363150
						CHANNELS 3 Zrotation Yrotation Xrotation
						End Site
						{
							OFFSET 0.000000 0.000000 0.000000
						}
					}
				}
			}
		}
	}
	JOINT LowerBack
	{
		OFFSET 0.000000 0.000000 0.000000
		CHANNELS 3 Zrotation Yrotation Xrotation
		JOINT Spine
		{
			OFFSET 0.028270 2.035590 -0.193380
			CHANNELS 3 Zrotation Yrotation Xrotation
			JOINT Spine1
			{
				OFFSET 0.056720 2.048850 -0.042750
				CHANNELS 3 Zrotation Yrotation Xrotation
				JOINT Neck
				{
					OFFSET 0.000000 0.000000 0.000000
					CHANNELS 3 Zrotation Yrotation Xrotation
					JOINT Neck1
					{
						OFFSET -0.054170 1.746240 0.172020
						CHANNELS 3 Zrotation Yrotation Xrotation
						JOINT Head
						{
							OFFSET 0.104070 1.761360 -0.123970
							CHANNELS 3 Zrotation Yrotation Xrotation
							End Site
							{
								OFFSET 0.000000 0.000000 0.000000
							}
						}
					}
				}
				JOINT LeftShoulder
				{
					OFFSET 0.000000 0.000000 0.000000
					CHANNELS 3 Zrotation Yrotation Xrotation
					JOINT LeftArm
					{
						OFFSET 3.362410 1.200890 -0.311210
						CHANNELS 3 Zrotation Yrotation Xrotation
						JOINT LeftForeArm
						{
							OFFSET 4.983000 -0.000000 -0.000000
							CHANNELS 3 Zrotation Yrotation Xrotation
							JOINT LeftHand
							{
								OFFSET 3.483560 -0.000000 -0.000000
								CHANNELS 3 Zrotation Yrotation Xrotation
								JOINT LeftFingerBase
								{
									OFFSET 0.000000 0.000000 0.000000
									CHANNELS 3 Zrotation Yrotation Xrotation
									JOINT LeftHandIndex1
									{
										OFFSET 0.715260 -0.000000 -0.000000
										CHANNELS 3 Zrotation Yrotation Xrotation
										End Site
										{
											OFFSET 0.000000 0.000000 0.000000
										}
									}
								}
								JOINT LThumb
								{
									OFFSET 0.000000 0.000000 0.000000
									CHANNELS 3 Zrotation Yrotation Xrotation
									End Site
									{
										OFFSET 0.000000 0.000000 0.000000
									}
								}
							}
						}
					}
				}
				JOINT RightShoulder
				{
					OFFSET 0.000000 0.000000 0.000000
					CHANNELS 3 Zrotation Yrotation Xrotation
					JOINT RightArm
					{
						OFFSET -3.136600 1.374050 -0.404650
						CHANNELS 3 Zrotation Yrotation Xrotation
						JOINT RightForeArm
						{
							OFFSET -5.241900 -0.000000 -0.000000
							CHANNELS 3 Zrotation Yrotation Xrotation
							JOINT RightHand
							{
								OFFSET -3.444170 -0.000000 -0.000000
								CHANNELS 3 Zrotation Yrotation Xrotation
								JOINT RightFingerBase
								{
									OFFSET 0.000000 0.000000 0.000000
									CHANNELS 3 Zrotation Yrotation Xrotation
									JOINT RightHandIndex1
									{
										OFFSET -0.622530 -0.000000 -0.000000
										CHANNELS 3 Zrotation Yrotation Xrotation
										End Site
										{
											OFFSET 0.000000 0.000000 0.000000
										}
									}
								}
								JOINT RThumb
								{
									OFFSET 0.000000 0.000000 0.000000
									CHANNELS 3 Zrotation Yrotation Xrotation
									End Site
									{
										OFFSET 0.000000 0.000000 0.000000
									}
								}
							}
						}
					}
				}
			}
		}
	}
}
MOTION
Frames: 4
Frame Time: 0.008333
0.080331 17.898419 -0.884040 3.756797 -8.272340 3.424282 -1.122749 3.229235 2.412483 -21.650547 -4.003024 -3.056823 -0.866892 3.150458 12.666925 -0.361746 2.048422 -1.699542 0.377600 -3.946400 -10.926000 0.011253 -3.455771 1.988754 10.310649 11.726244 -9.792985 -1.370562 -8.482363 26.098573 -0.629092 1.472616 -8.328447 -0.030400 -1.126000 3.095500 -3.175532 -1.294266 -2.805360 1.772055 -2.223481 -0.729525 5.334033 -0.761942 0.901051 -8.579293 2.687335 -16.649741 2.446673 5.375279 15.389642 3.401100 1.715200 10.034500 -9.332936 -1.875212 -1.204746 -59.245766 -46.714609 36.699177 123.189276 -57.028395 -89.095093 0.827254 -0.235043 4.326282 29.711760 20.049515 10.890800 -7.125000 0.000000 0.000000 0.384400 53.014800 0.075800 9.036184 2.005626 -1.413826 70.561686 -5.591504 8.100129 -18.258618 26.030725 -5.133942 0.697237 -0.843582 16.761789 -26.663615 7.106709 -4.015300 7.125000 0.000000 0.000000 -0.542800 -21.280000 -0.308800 
0.082030 17.900218 -0.879844 3.721079 -8.280162 3.419453 -1.121540 3.233761 2.416353 -21.625560 -3.969621 -3.019066 -0.868533 3.142012 12.645894 -0.360301 2.045057 -1.730091 0.376900 -3.942700 -10.915500 0.010883 -3.457708 1.990357 10.337231 11.692048 -9.765572 -1.371386 -8.481176 26.098650 -0.642474 1.555353 -8.318134 -0.035300 -1.213200 3.335500 -3.103586 -1.303162 -2.846590 1.786405 -2.235915 -0.701614 5.322800 -0.769062 0.939566 -8.477589 2.735941 -16.764570 2.295889 5.428834 15.224205 3.343500 1.737800 10.005100 -9.308758 -1.907660 -1.248766 -58.647143 -47.172572 35.981149 122.895422 -57.122090 -88.876398 0.828233 -0.243690 4.358588 29.710022 19.846683 10.792000 -7.125000 0.000000 0.000000 0.420500 52.799100 0.080700 9.033879 2.012452 -1.398839 70.511159 -5.426746 8.078824 -18.249519 26.021463 -5.131496 0.686069 -0.851017 16.946702 -26.609628 7.242023 -4.078300 7.125000 0.000000 0.000000 -0.491100 -21.124600 -0.281100 
0.082529 17.901517 -0.878345 3.713210 -8.275702 3.421287 -1.120724 3.235649 2.418468 -21.620949 -3.934566 -3.001032 -0.871165 3.129458 12.614512 -0.348878 1.986558 -1.754406 0.374800 -3.931900 -10.885300 0.010782 -3.458030 1.990250 10.342273 11.671689 -9.765179 -1.370616 -8.479974 26.094443 -0.641187 1.551663 -8.307595 -0.032400 -1.161400 3.192900 -3.089915 -1.315654 -2.903548 1.794532 -2.252076 -0.669319 5.335025 -0.779428 0.996747 -8.361914 2.814405 -16.841977 2.178363 5.512635 15.016856 3.296900 1.781200 9.952100 -9.286155 -1.935800 -1.288447 -58.119869 -47.560654 35.334379 122.600142 -57.216950 -88.655149 0.829259 -0.251655 4.468147 29.706750 19.696224 10.717700 -7.125000 0.000000 0.000000 0.443800 52.639100 0.083400 9.030582 2.018431 -1.386323 70.472598 -5.283536 8.098782 -18.285682 26.063776 -5.149628 0.679549 -0.851669 17.083360 -26.558404 7.256593 -4.076400 7.125000 0.000000 0.000000 -0.449900 -21.112100 -0.257700 
0.082529 17.900917 -0.879544 3.772336 -8.273314 3.400658 -1.120718 3.236391 2.418049 -21.681747 -3.922798 -2.974494 -0.875705 3.110506 12.565525 -0.350186 1.986239 -1.721270 0.377800 -3.947700 -10.929500 0.008374 -3.458720 1.991116 10.283317 11.698992 -9.752041 -1.369384 -8.479881 26.088784 -0.639512 1.524151 -8.347846 -0.031200 -1.140600 3.135700 -3.150222 -1.329993 -2.846650 1.793541 -2.271260 -0.684838 5.379508 -0.786986 0.936144 -8.286114 2.891430 -16.950209 2.111382 5.605834 14.832988 3.274700 1.830500 9.911200 -9.266762 -1.956384 -1.321800 -57.713549 -47.893632 34.809110 122.413952 -57.278213 -88.516867 0.832478 -0.254800 4.605833 29.867037 19.604149 10.740200 -7.125000 0.000000 0.000000 0.624100 52.570300 0.116300 9.025987 2.023945 -1.378462 70.425322 -5.236016 8.211777 -18.337406 26.125756 -5.176039 0.688937 -0.850513 17.082252 -26.717783 7.150059 -4.048800 7.125000 0.000000 0.000000 -0.577600 -21.222300 -0.329300 
